<svg xmlns="http://www.w3.org/2000/svg" version="1.1" xmlns:xlink="http://www.w3.org/1999/xlink" xmlns:svgjs="http://svgjs.dev/svgjs" width="2000" height="540" viewBox="0 0 2000 540"><g transform="matrix(1,0,0,1,-1.2121212121212466,-1.9046936866276383)"><svg viewBox="0 0 396 107" data-background-color="#ffffff" preserveAspectRatio="xMidYMid meet" height="540" width="2000" xmlns="http://www.w3.org/2000/svg" xmlns:xlink="http://www.w3.org/1999/xlink"><g id="tight-bounds" transform="matrix(1,0,0,1,0.2400000000000091,0.3774115267947309)"><svg viewBox="0 0 395.52 106.24517694641051" height="106.24517694641051" width="395.52"><g><svg viewBox="0 0 395.52 106.24517694641051" height="106.24517694641051" width="395.52"><g><svg viewBox="0 0 395.52 106.24517694641051" height="106.24517694641051" width="395.52"><g id="textblocktransform"><svg viewBox="0 0 395.52 106.24517694641051" height="106.24517694641051" width="395.52" id="textblock"><g><svg viewBox="0 0 395.52 106.24517694641051" height="106.24517694641051" width="395.52"><g transform="matrix(1,0,0,1,0,0)"><svg width="395.52" viewBox="-1.5 -36.25 148.33 39.85" height="106.24517694641051" data-palette-color="#c8c8c8"><g class="wordmark-text-0" data-fill-palette-color="primary" id="text-0"><path d="M4.9 3.55L4.9 3.55Q4.7 3.6 4.45 3.6 4.2 3.6 3.95 3.6L3.95 3.6Q2.25 3.6 0.7 3-0.85 2.4-1.35 0.7L-1.35 0.7Q-1.5 0.25-1.5-0.3L-1.5-0.3Q-1.5-1.65-0.65-2.75L-0.65-2.75Q-0.45-2.95-0.28-3.03-0.1-3.1-0.1-2.8L-0.1-2.8Q0.05-0.35 1.63 0.73 3.2 1.8 5.35 1.8L5.35 1.8Q7.4 1.8 9.58 0.95 11.75 0.1 13.45-1.35L13.45-1.35Q15.65-3.3 17.53-5.85 19.4-8.4 21.1-11L21.1-11Q21.7-12 22.35-13 23-14 23.65-14.95L23.65-14.95 11.2-14.95Q11.1-14.95 11.1-15.05L11.1-15.05Q11.1-15.3 11.48-15.68 11.85-16.05 12.1-16.05L12.1-16.05 24.35-16.05Q26.55-19.3 28.9-22.43 31.25-25.55 33.65-28.15L33.65-28.15Q36.6-31.25 39.83-33.13 43.05-35 45.65-35.15L45.65-35.15Q47.05-35.25 48.18-35.02 49.3-34.8 50-34.2L50-34.2Q50.65-33.7 50.95-32.95 51.25-32.2 51.25-31.4L51.25-31.4Q51.25-31.2 51.23-31 51.2-30.8 51.15-30.55L51.15-30.55Q51-29.75 50.55-29.25L50.55-29.25Q50.35-29.05 50.15-29.05L50.15-29.05Q49.8-29.05 50.1-29.5L50.1-29.5Q50.55-30.1 50.55-30.95L50.55-30.95Q50.55-31.4 50.4-31.75L50.4-31.75Q50.05-32.7 49.08-33.18 48.1-33.65 46.8-33.65L46.8-33.65Q44-33.65 40.9-31.65L40.9-31.65Q38.65-30.2 36.33-27.78 34-25.35 31.68-22.35 29.35-19.35 27.05-16.05L27.05-16.05 34.4-16.05Q34.85-16.95 35.33-17.85 35.8-18.75 36.3-19.65L36.3-19.65Q38.15-23 40.13-26.08 42.1-29.15 43.65-31.65L43.65-31.65Q43.8-31.9 43.95-31.9L43.95-31.9Q44.15-31.9 44.2-31.7 44.25-31.5 44.1-31.35L44.1-31.35Q41.8-27.85 40.08-23.95 38.35-20.05 36.95-16.05L36.95-16.05 39.4-16.05Q39.5-16.05 39.5-15.95L39.5-15.95Q39.5-15.75 39.13-15.35 38.75-14.95 38.45-14.95L38.45-14.95 36.55-14.95Q36.1-13.65 35.48-11.48 34.85-9.3 34.38-6.95 33.9-4.6 33.9-2.65L33.9-2.65Q33.9-0.85 34.48 0.15 35.05 1.15 36.3 1.15L36.3 1.15Q36.45 1.15 36.6 1.15 36.75 1.15 36.9 1.1L36.9 1.1Q37.75 0.95 38.63 0.15 39.5-0.65 40.35-1.75L40.35-1.75Q41.55-3.3 42.55-5.05 43.55-6.8 44.05-7.75L44.05-7.75Q44.3-8.15 44.45-8.15L44.45-8.15Q44.65-8.15 44.65-7.8L44.65-7.8Q44.65-7.6 44.5-7.3L44.5-7.3Q43.8-6.05 42.73-4.17 41.65-2.3 40.35-0.7L40.35-0.7Q39.4 0.4 38.35 1.2 37.3 2 36.15 2.2L36.15 2.2Q35.85 2.25 35.58 2.27 35.3 2.3 35 2.3L35 2.3Q33.55 2.3 32.45 1.48 31.35 0.65 30.95-1.3L30.95-1.3Q30.85-1.85 30.8-2.45 30.75-3.05 30.75-3.6L30.75-3.6Q30.75-6.5 31.78-9.45 32.8-12.4 33.9-14.95L33.9-14.95 26.2-14.95Q25.4-13.85 24.65-12.68 23.9-11.5 23.1-10.35L23.1-10.35Q21.65-8.25 19.63-5.93 17.6-3.6 15.2-1.53 12.8 0.55 10.18 1.95 7.55 3.35 4.9 3.55ZM46.6 0.3L46.6 0.3Q44.8 0.3 44.1-0.75 43.4-1.8 43.4-3.4L43.4-3.4Q43.4-5.05 43.92-7 44.45-8.95 45.17-10.8 45.9-12.65 46.57-14.05 47.25-15.45 47.5-16L47.5-16Q48.4-17.9 49.72-20.3 51.05-22.7 52.72-25.2 54.4-27.7 56.27-29.95 58.15-32.2 60.17-33.85 62.2-35.5 64.2-36.1L64.2-36.1Q64.75-36.25 65.2-36.25L65.2-36.25Q66.05-36.25 66.62-35.77 67.2-35.3 67.2-34.15L67.2-34.15Q67.2-33.35 66.8-32.15L66.8-32.15Q66.15-30.4 64.6-28.28 63.05-26.15 60.95-23.88 58.85-21.6 56.52-19.4 54.2-17.2 52-15.3 49.8-13.4 48.1-12.05L48.1-12.05Q47.65-11.1 47.27-10.2 46.9-9.3 46.6-8.45L46.6-8.45Q46.45-8 46.15-7.1 45.85-6.2 45.6-5.1 45.35-4 45.35-3L45.35-3Q45.35-2 45.75-1.28 46.15-0.55 47.2-0.55L47.2-0.55Q48.05-0.55 48.77-1.1 49.5-1.65 50.1-2.3L50.1-2.3Q52.2-4.7 53.85-7.85L53.85-7.85Q54.05-8.2 54.15-8.2L54.15-8.2Q54.25-8.2 54.25-7.9L54.25-7.9Q54.25-7.45 54.05-6.95L54.05-6.95Q53.1-5.2 52.32-4 51.55-2.8 50.1-1.35L50.1-1.35Q49.45-0.7 48.57-0.2 47.7 0.3 46.6 0.3ZM48.65-13.2L48.65-13.2Q50.2-14.55 52.25-16.43 54.3-18.3 56.45-20.45 58.6-22.6 60.52-24.75 62.45-26.9 63.87-28.8 65.3-30.7 65.8-32.1L65.8-32.1Q66.25-33.4 66.25-34.1L66.25-34.1Q66.25-35.4 65.1-35.4L65.1-35.4Q64.45-35.4 63.55-34.93 62.65-34.45 61.9-33.7L61.9-33.7Q60.65-32.5 58.97-30.28 57.3-28.05 55.45-25.2 53.6-22.35 51.82-19.25 50.05-16.15 48.65-13.2ZM55.2 0.3L55.2 0.3Q53.8 0.3 53.15-0.63 52.5-1.55 52.5-2.9L52.5-2.9Q52.5-3.3 52.57-3.73 52.65-4.15 52.75-4.6L52.75-4.6Q53.3-6.6 54.47-9.08 55.65-11.55 56.75-13.5L56.75-13.5Q57.4-14.6 57.95-15.08 58.5-15.55 59.15-15.78 59.8-16 60.7-16.3L60.7-16.3Q60.95-16.4 61.2-16.45 61.45-16.5 61.75-16.55L61.75-16.55Q60.75-15.55 59.72-14.15 58.7-12.75 57.5-10.3L57.5-10.3Q56.85-9 56.22-7.4 55.6-5.8 55.15-4.4 54.7-3 54.65-2.2L54.65-2.2Q54.6-1.25 54.9-0.85 55.2-0.45 55.7-0.45L55.7-0.45Q56.55-0.45 57.32-1.05 58.1-1.65 58.7-2.3L58.7-2.3Q59.8-3.55 60.77-5.05 61.75-6.55 62.7-8.25L62.7-8.25Q62.85-8.45 62.95-8.45L62.95-8.45Q63.15-8.45 63.15-8.15L63.15-8.15Q63.15-7.9 63.05-7.75L63.05-7.75Q62.15-6.1 61.15-4.45 60.15-2.8 58.7-1.35L58.7-1.35Q58.05-0.7 57.17-0.2 56.3 0.3 55.2 0.3ZM61.31-19.37L61.31-19.37Q60.73-19.37 60.36-19.77 60-20.16 60-20.69L60-20.69Q60-21.42 60.57-21.97 61.15-22.52 61.83-22.58L61.83-22.58Q62.41-22.58 62.78-22.21 63.14-21.84 63.14-21.26L63.14-21.26Q63.14-20.58 62.59-19.98 62.04-19.37 61.31-19.37ZM81.04 0.3L81.04 0.3Q79.54 0.3 78.74-0.63 77.94-1.55 77.94-2.95L77.94-2.95Q77.94-4.5 78.74-6.08 79.54-7.65 80.57-9.15 81.59-10.65 82.39-12 83.19-13.35 83.19-14.4L83.19-14.4Q83.19-14.8 82.99-15.13 82.79-15.45 82.24-15.45L82.24-15.45Q80.64-15.45 78.92-13.98 77.19-12.5 75.59-10.2 73.99-7.9 72.72-5.4 71.44-2.9 70.74-0.8L70.74-0.8Q69.94-1 69.67-1.43 69.39-1.85 69.39-2.35L69.39-2.35Q69.39-3.15 69.62-3.9 69.84-4.65 70.34-5.75 70.84-6.85 71.64-8.58 72.44-10.3 73.54-13.05L73.54-13.05Q73.69-13.45 73.74-13.75 73.79-14.05 73.79-14.3L73.79-14.3Q73.79-15.45 72.84-15.45L72.84-15.45Q71.64-15.45 70.39-14.48 69.14-13.5 67.97-11.9 66.79-10.3 65.74-8.45 64.69-6.6 63.84-4.83 62.99-3.05 62.44-1.75L62.44-1.75Q61.94-0.6 61.24-0.28 60.54 0.05 59.89 0.05L59.89 0.05Q59.69 0.05 59.42 0.03 59.14 0 58.89 0L58.89 0Q59.89-2 61.02-4.38 62.14-6.75 63.09-9.15 64.04-11.55 64.64-13.75 65.24-15.95 65.24-17.55L65.24-17.55Q65.24-17.75 65.22-17.85 65.19-17.95 65.19-18.05L65.19-18.05Q65.19-18.2 65.29-18.2L65.29-18.2Q65.79-18.2 66.09-17.57 66.39-16.95 66.52-16.18 66.64-15.4 66.64-14.95L66.64-14.95Q66.64-13.7 66.34-12.38 66.04-11.05 65.64-10.15L65.64-10.15Q67.54-12.7 69.57-14.5 71.59-16.3 73.59-16.3L73.59-16.3Q74.94-16.3 75.54-15.75 76.14-15.2 76.14-14.2L76.14-14.2Q76.14-13.5 75.92-12.8 75.69-12.1 75.19-10.9L75.19-10.9Q77.09-13.5 78.92-14.9 80.74-16.3 82.54-16.3L82.54-16.3Q83.99-16.3 84.72-15.65 85.44-15 85.44-13.9L85.44-13.9Q85.44-12.7 84.67-11.08 83.89-9.45 82.89-7.73 81.89-6 81.12-4.48 80.34-2.95 80.34-1.95L80.34-1.95Q80.34-1.4 80.59-0.95 80.84-0.5 81.49-0.5L81.49-0.5Q82.34-0.5 83.12-1.07 83.89-1.65 84.44-2.3L84.44-2.3Q85.59-3.55 86.57-5.08 87.54-6.6 88.49-8.3L88.49-8.3Q88.64-8.5 88.69-8.5L88.69-8.5Q88.89-8.5 88.89-8.05L88.89-8.05Q88.89-7.75 88.79-7.6L88.79-7.6Q87.89-5.95 86.89-4.38 85.89-2.8 84.44-1.35L84.44-1.35Q83.79-0.7 82.94-0.2 82.09 0.3 81.04 0.3ZM92.94 0.4L92.94 0.4Q90.04 0.4 88.84-1.1L88.84-1.1Q88.24-1.75 87.99-2.65 87.74-3.55 87.74-4.5L87.74-4.5Q87.74-5.7 88.04-6.93 88.34-8.15 88.79-9.2L88.79-9.2Q89.49-10.85 90.64-12.53 91.79-14.2 93.42-15.35 95.04-16.5 96.99-16.5L96.99-16.5Q98.29-16.5 99.04-15.85 99.79-15.2 99.79-13.85L99.79-13.85Q99.79-12.3 98.84-10.73 97.89-9.15 96.44-8.1 94.99-7.05 93.44-7.05L93.44-7.05Q92.04-7.05 90.99-8.05L90.99-8.05Q90.69-7.25 90.49-6.28 90.29-5.3 90.29-4.3L90.29-4.3Q90.29-2.75 90.92-1.6 91.54-0.45 93.19-0.45L93.19-0.45Q94.39-0.45 95.52-1.07 96.64-1.7 97.54-2.6L97.54-2.6Q98.54-3.65 99.44-4.85 100.34-6.05 101.19-7.65L101.19-7.65Q101.29-7.8 101.34-7.8L101.34-7.8Q101.54-7.8 101.54-7.35L101.54-7.35Q101.54-7.05 101.34-6.7L101.34-6.7Q100.59-5.35 99.59-3.98 98.59-2.6 97.54-1.6L97.54-1.6Q96.59-0.7 95.49-0.15 94.39 0.4 92.94 0.4ZM91.24-8.8L91.24-8.8Q91.59-8.3 92.07-8.08 92.54-7.85 93.04-7.85L93.04-7.85Q94.24-7.85 95.54-8.78 96.84-9.7 97.64-10.95L97.64-10.95Q97.99-11.5 98.27-12.4 98.54-13.3 98.54-14.1L98.54-14.1Q98.54-14.8 98.27-15.33 97.99-15.85 97.19-15.85L97.19-15.85Q96.29-15.85 95.07-14.75 93.84-13.65 92.74-11.9L92.74-11.9Q92.39-11.3 91.97-10.5 91.54-9.7 91.24-8.8ZM110.44 0.3L110.44 0.3Q108.99 0.3 108.16-0.6 107.34-1.5 107.34-2.85L107.34-2.85Q107.34-3.5 107.59-4.35L107.59-4.35Q108.29-6.55 109.81-8.72 111.34-10.9 112.34-13.05L112.34-13.05Q112.69-13.75 112.69-14.3L112.69-14.3Q112.69-14.85 112.36-15.13 112.04-15.4 111.59-15.4L111.59-15.4Q110.94-15.4 109.96-14.88 108.99-14.35 107.74-12.9L107.74-12.9Q106.99-12 106.04-10.7 105.09-9.4 104.49-8.35L104.49-8.35Q103.49-6.65 102.69-4.93 101.89-3.2 101.29-1.75L101.29-1.75Q100.79-0.6 100.09-0.28 99.39 0.05 98.74 0 98.09-0.05 97.74 0L97.74 0Q99.14-2.75 100.49-5.8 101.84-8.85 102.79-11.9L102.79-11.9Q103.24-13.3 103.54-14.63 103.84-15.95 103.79-16.35L103.79-16.35 103.79-16.45Q103.79-16.85 104.19-16.65L104.19-16.65Q104.84-16.3 105.09-15.63 105.34-14.95 105.34-14.1L105.34-14.1Q105.34-13.15 105.09-12.08 104.84-11 104.49-10.15L104.49-10.15Q105.14-11.05 105.89-11.98 106.64-12.9 107.54-13.75L107.54-13.75Q108.59-14.8 109.79-15.58 110.99-16.35 112.39-16.35L112.39-16.35Q113.74-16.35 114.36-15.75 114.99-15.15 114.99-14.15L114.99-14.15Q114.99-13.1 114.39-11.75L114.39-11.75Q113.74-10.2 112.81-8.65 111.89-7.1 111.14-5.65L111.14-5.65Q110.99-5.35 110.66-4.73 110.34-4.1 110.09-3.35L110.09-3.35Q109.99-3 109.89-2.63 109.79-2.25 109.79-1.85L109.79-1.85Q109.79-1.35 110.01-0.93 110.24-0.5 110.89-0.5L110.89-0.5Q111.74-0.5 112.51-1.07 113.29-1.65 113.84-2.3L113.84-2.3Q114.99-3.55 115.96-5.08 116.94-6.6 117.89-8.3L117.89-8.3Q118.04-8.5 118.09-8.5L118.09-8.5Q118.29-8.5 118.29-8.05L118.29-8.05Q118.29-7.75 118.19-7.6L118.19-7.6Q117.29-5.95 116.29-4.38 115.29-2.8 113.84-1.35L113.84-1.35Q113.19-0.7 112.34-0.2 111.49 0.3 110.44 0.3ZM119.54 0.35L119.54 0.35Q118.29 0.35 117.31-0.38 116.34-1.1 116.34-2.75L116.34-2.75Q116.34-4.5 117.19-6.6 118.04-8.7 118.79-10.35L118.79-10.35Q119.19-11.15 119.86-12.53 120.54-13.9 121.34-15.25L121.34-15.25 118.99-15.25Q118.84-15.25 118.84-15.5L118.84-15.5Q118.84-15.7 118.99-15.93 119.14-16.15 119.34-16.15L119.34-16.15Q120.74-16.15 121.44-16.4 122.14-16.65 122.64-17.1L122.64-17.1Q123.44-17.8 124.21-18.9 124.99-20 125.74-20.8L125.74-20.8Q126.29-21.5 127.11-21.85 127.94-22.2 128.19-22.1L128.19-22.1Q127.94-21.75 127.39-20.9 126.84-20.05 126.24-19.05 125.64-18.05 125.14-17.2 124.64-16.35 124.49-16.05L124.49-16.05 127.79-16.05Q127.94-16.05 127.94-15.95L127.94-15.95Q127.94-15.75 127.71-15.5 127.49-15.25 127.29-15.25L127.29-15.25 124.04-15.25Q123.14-13.7 121.91-11.23 120.69-8.75 119.74-6.45L119.74-6.45Q119.54-6 119.06-4.65 118.59-3.3 118.59-2.15L118.59-2.15Q118.59-1.4 118.91-0.9 119.24-0.4 120.04-0.4L120.04-0.4Q120.89-0.4 121.89-1.03 122.89-1.65 123.44-2.3L123.44-2.3Q124.59-3.55 125.54-5.05 126.49-6.55 127.44-8.25L127.44-8.25Q127.59-8.45 127.74-8.45L127.74-8.45Q127.94-8.45 127.94-8.15L127.94-8.15Q127.94-7.9 127.84-7.75L127.84-7.75Q126.94-6.1 125.91-4.45 124.89-2.8 123.44-1.35L123.44-1.35Q122.79-0.7 121.69-0.18 120.59 0.35 119.54 0.35ZM131.18 1L131.18 1Q129.28 1 127.91-0.23 126.53-1.45 126.53-4L126.53-4Q126.53-5.6 127.11-7.33 127.68-9.05 128.38-10.4L128.38-10.4Q129.68-12.85 131.66-14.68 133.63-16.5 136.38-16.5L136.38-16.5Q139.03-16.5 140.08-15.05 141.13-13.6 141.13-11.5L141.13-11.5Q141.13-10.65 140.98-9.75L140.98-9.75Q140.58-7.3 139.33-5L139.33-5Q139.68-4.5 140.26-4.17 140.83-3.85 141.53-3.85L141.53-3.85Q142.73-3.85 143.58-4.5 144.43-5.15 145.06-6.13 145.68-7.1 146.13-7.95L146.13-7.95Q146.43-8.5 146.68-8.5L146.68-8.5Q146.83-8.5 146.83-8.3L146.83-8.3Q146.83-8.1 146.53-7.4L146.53-7.4Q145.68-5.7 144.53-4.45 143.38-3.2 141.53-3.2L141.53-3.2Q139.83-3.2 138.93-4.4L138.93-4.4Q137.53-2.1 135.53-0.55 133.53 1 131.18 1ZM131.28 0.4L131.28 0.4Q133.73 0.4 136.13-2L136.13-2Q136.83-2.7 137.41-3.48 137.98-4.25 138.43-5.05L138.43-5.05Q137.78-5.8 137.51-6.68 137.23-7.55 137.23-8.35L137.23-8.35Q137.23-9.6 137.68-10.58 138.13-11.55 138.93-11.55L138.93-11.55Q139.33-11.55 139.71-11.15 140.08-10.75 140.18-9.9L140.18-9.9Q140.33-10.6 140.33-11.4L140.33-11.4Q140.33-13.3 139.63-14.43 138.93-15.55 137.28-15.55L137.28-15.55Q136.28-15.55 135.23-14.78 134.18-14 133.26-12.9 132.33-11.8 131.63-10.65 130.93-9.5 130.58-8.75L130.58-8.75Q129.73-6.9 129.36-5.45 128.98-4 128.98-2.9L128.98-2.9Q128.98-1.3 129.66-0.45 130.33 0.4 131.28 0.4Z" fill="#ffffff" data-fill-palette-color="primary"></path></g></svg></g></svg></g></svg></g></svg></g><g></g></svg></g><defs></defs></svg><rect width="395.52" height="106.24517694641051" fill="none" stroke="none" visibility="hidden"></rect></g></svg></g></svg>